<mxfile host="Electron" modified="2024-03-15T16:41:28.413Z" agent="Mozilla/5.0 (Windows NT 10.0; Win64; x64) AppleWebKit/537.36 (KHTML, like Gecko) draw.io/24.0.4 Chrome/120.0.6099.109 Electron/28.1.0 Safari/537.36" etag="RuTfhuAhln-tggA9jfyf" version="24.0.4" type="device">
  <diagram name="Pagina-1" id="4Cd4dXItEA1hWgDrUpJ3">
    <mxGraphModel dx="1862" dy="626" grid="1" gridSize="10" guides="1" tooltips="1" connect="1" arrows="1" fold="1" page="1" pageScale="1" pageWidth="827" pageHeight="1169" math="0" shadow="0">
      <root>
        <mxCell id="0" />
        <mxCell id="1" parent="0" />
        <mxCell id="7RU0lWUtDbCaOoBTzE0H-17" style="edgeStyle=orthogonalEdgeStyle;rounded=0;orthogonalLoop=1;jettySize=auto;html=1;entryX=0;entryY=0.5;entryDx=0;entryDy=0;" edge="1" parent="1" source="7RU0lWUtDbCaOoBTzE0H-1" target="7RU0lWUtDbCaOoBTzE0H-9">
          <mxGeometry relative="1" as="geometry" />
        </mxCell>
        <mxCell id="7RU0lWUtDbCaOoBTzE0H-19" style="edgeStyle=orthogonalEdgeStyle;rounded=0;orthogonalLoop=1;jettySize=auto;html=1;entryX=0;entryY=0.5;entryDx=0;entryDy=0;" edge="1" parent="1" source="7RU0lWUtDbCaOoBTzE0H-1" target="7RU0lWUtDbCaOoBTzE0H-15">
          <mxGeometry relative="1" as="geometry" />
        </mxCell>
        <mxCell id="7RU0lWUtDbCaOoBTzE0H-125" style="edgeStyle=orthogonalEdgeStyle;rounded=0;orthogonalLoop=1;jettySize=auto;html=1;entryX=0;entryY=0.5;entryDx=0;entryDy=0;endArrow=doubleBlock;endFill=1;" edge="1" parent="1" source="7RU0lWUtDbCaOoBTzE0H-1" target="7RU0lWUtDbCaOoBTzE0H-124">
          <mxGeometry relative="1" as="geometry" />
        </mxCell>
        <mxCell id="7RU0lWUtDbCaOoBTzE0H-135" style="edgeStyle=orthogonalEdgeStyle;rounded=0;orthogonalLoop=1;jettySize=auto;html=1;entryX=1;entryY=0.5;entryDx=0;entryDy=0;endArrow=doubleBlock;endFill=1;" edge="1" parent="1" source="7RU0lWUtDbCaOoBTzE0H-1" target="7RU0lWUtDbCaOoBTzE0H-132">
          <mxGeometry relative="1" as="geometry" />
        </mxCell>
        <mxCell id="7RU0lWUtDbCaOoBTzE0H-1" value="CINEMA" style="rounded=0;whiteSpace=wrap;html=1;" vertex="1" parent="1">
          <mxGeometry x="40" y="115" width="120" height="60" as="geometry" />
        </mxCell>
        <mxCell id="7RU0lWUtDbCaOoBTzE0H-80" style="edgeStyle=orthogonalEdgeStyle;rounded=0;orthogonalLoop=1;jettySize=auto;html=1;entryX=0;entryY=0.5;entryDx=0;entryDy=0;" edge="1" parent="1" source="7RU0lWUtDbCaOoBTzE0H-2" target="7RU0lWUtDbCaOoBTzE0H-60">
          <mxGeometry relative="1" as="geometry" />
        </mxCell>
        <mxCell id="7RU0lWUtDbCaOoBTzE0H-85" style="edgeStyle=orthogonalEdgeStyle;rounded=0;orthogonalLoop=1;jettySize=auto;html=1;entryX=0;entryY=0.5;entryDx=0;entryDy=0;" edge="1" parent="1" source="7RU0lWUtDbCaOoBTzE0H-2" target="7RU0lWUtDbCaOoBTzE0H-58">
          <mxGeometry relative="1" as="geometry" />
        </mxCell>
        <mxCell id="7RU0lWUtDbCaOoBTzE0H-144" style="edgeStyle=orthogonalEdgeStyle;rounded=0;orthogonalLoop=1;jettySize=auto;html=1;entryX=0.5;entryY=0;entryDx=0;entryDy=0;endArrow=doubleBlock;endFill=1;" edge="1" parent="1" source="7RU0lWUtDbCaOoBTzE0H-2" target="7RU0lWUtDbCaOoBTzE0H-139">
          <mxGeometry relative="1" as="geometry">
            <Array as="points">
              <mxPoint x="592" y="220" />
              <mxPoint x="592" y="220" />
            </Array>
          </mxGeometry>
        </mxCell>
        <mxCell id="7RU0lWUtDbCaOoBTzE0H-2" value="Showtime" style="rounded=0;whiteSpace=wrap;html=1;" vertex="1" parent="1">
          <mxGeometry x="548" y="116" width="120" height="60" as="geometry" />
        </mxCell>
        <mxCell id="7RU0lWUtDbCaOoBTzE0H-27" style="edgeStyle=orthogonalEdgeStyle;rounded=0;orthogonalLoop=1;jettySize=auto;html=1;entryX=0;entryY=0.5;entryDx=0;entryDy=0;" edge="1" parent="1" source="7RU0lWUtDbCaOoBTzE0H-3" target="7RU0lWUtDbCaOoBTzE0H-21">
          <mxGeometry relative="1" as="geometry" />
        </mxCell>
        <mxCell id="7RU0lWUtDbCaOoBTzE0H-32" style="edgeStyle=orthogonalEdgeStyle;rounded=0;orthogonalLoop=1;jettySize=auto;html=1;entryX=0;entryY=0.5;entryDx=0;entryDy=0;" edge="1" parent="1" source="7RU0lWUtDbCaOoBTzE0H-3" target="7RU0lWUtDbCaOoBTzE0H-28">
          <mxGeometry relative="1" as="geometry" />
        </mxCell>
        <mxCell id="7RU0lWUtDbCaOoBTzE0H-126" style="edgeStyle=orthogonalEdgeStyle;rounded=0;orthogonalLoop=1;jettySize=auto;html=1;entryX=1;entryY=0.5;entryDx=0;entryDy=0;" edge="1" parent="1" source="7RU0lWUtDbCaOoBTzE0H-3" target="7RU0lWUtDbCaOoBTzE0H-124">
          <mxGeometry relative="1" as="geometry" />
        </mxCell>
        <mxCell id="7RU0lWUtDbCaOoBTzE0H-128" style="edgeStyle=orthogonalEdgeStyle;rounded=0;orthogonalLoop=1;jettySize=auto;html=1;entryX=0;entryY=0.5;entryDx=0;entryDy=0;endArrow=doubleBlock;endFill=1;" edge="1" parent="1" source="7RU0lWUtDbCaOoBTzE0H-3" target="7RU0lWUtDbCaOoBTzE0H-2">
          <mxGeometry relative="1" as="geometry">
            <mxPoint x="532.5" y="145.9999999999999" as="targetPoint" />
          </mxGeometry>
        </mxCell>
        <mxCell id="7RU0lWUtDbCaOoBTzE0H-3" value="Theater" style="rounded=0;whiteSpace=wrap;html=1;" vertex="1" parent="1">
          <mxGeometry x="366.5" y="116" width="120" height="60" as="geometry" />
        </mxCell>
        <mxCell id="7RU0lWUtDbCaOoBTzE0H-49" style="edgeStyle=orthogonalEdgeStyle;rounded=0;orthogonalLoop=1;jettySize=auto;html=1;entryX=0;entryY=0.5;entryDx=0;entryDy=0;" edge="1" parent="1" source="7RU0lWUtDbCaOoBTzE0H-4" target="7RU0lWUtDbCaOoBTzE0H-33">
          <mxGeometry relative="1" as="geometry" />
        </mxCell>
        <mxCell id="7RU0lWUtDbCaOoBTzE0H-51" style="edgeStyle=orthogonalEdgeStyle;rounded=0;orthogonalLoop=1;jettySize=auto;html=1;entryX=0;entryY=0.5;entryDx=0;entryDy=0;" edge="1" parent="1" source="7RU0lWUtDbCaOoBTzE0H-4" target="7RU0lWUtDbCaOoBTzE0H-35">
          <mxGeometry relative="1" as="geometry" />
        </mxCell>
        <mxCell id="7RU0lWUtDbCaOoBTzE0H-52" style="edgeStyle=orthogonalEdgeStyle;rounded=0;orthogonalLoop=1;jettySize=auto;html=1;entryX=0;entryY=0.5;entryDx=0;entryDy=0;" edge="1" parent="1" source="7RU0lWUtDbCaOoBTzE0H-4" target="7RU0lWUtDbCaOoBTzE0H-37">
          <mxGeometry relative="1" as="geometry" />
        </mxCell>
        <mxCell id="7RU0lWUtDbCaOoBTzE0H-53" style="edgeStyle=orthogonalEdgeStyle;rounded=0;orthogonalLoop=1;jettySize=auto;html=1;entryX=0;entryY=0.5;entryDx=0;entryDy=0;" edge="1" parent="1" source="7RU0lWUtDbCaOoBTzE0H-4" target="7RU0lWUtDbCaOoBTzE0H-44">
          <mxGeometry relative="1" as="geometry" />
        </mxCell>
        <mxCell id="7RU0lWUtDbCaOoBTzE0H-54" style="edgeStyle=orthogonalEdgeStyle;rounded=0;orthogonalLoop=1;jettySize=auto;html=1;entryX=0;entryY=0.5;entryDx=0;entryDy=0;" edge="1" parent="1" source="7RU0lWUtDbCaOoBTzE0H-4" target="7RU0lWUtDbCaOoBTzE0H-46">
          <mxGeometry relative="1" as="geometry" />
        </mxCell>
        <mxCell id="7RU0lWUtDbCaOoBTzE0H-129" style="edgeStyle=orthogonalEdgeStyle;rounded=0;orthogonalLoop=1;jettySize=auto;html=1;endArrow=doubleBlock;endFill=1;entryX=0.99;entryY=0.506;entryDx=0;entryDy=0;entryPerimeter=0;" edge="1" parent="1" target="7RU0lWUtDbCaOoBTzE0H-2">
          <mxGeometry relative="1" as="geometry">
            <mxPoint x="723" y="146.0588235294117" as="sourcePoint" />
            <mxPoint x="670" y="146" as="targetPoint" />
          </mxGeometry>
        </mxCell>
        <mxCell id="7RU0lWUtDbCaOoBTzE0H-151" style="edgeStyle=orthogonalEdgeStyle;rounded=0;orthogonalLoop=1;jettySize=auto;html=1;entryX=0.5;entryY=0;entryDx=0;entryDy=0;endArrow=doubleBlock;endFill=1;" edge="1" parent="1" source="7RU0lWUtDbCaOoBTzE0H-4" target="7RU0lWUtDbCaOoBTzE0H-145">
          <mxGeometry relative="1" as="geometry" />
        </mxCell>
        <mxCell id="7RU0lWUtDbCaOoBTzE0H-4" value="Movie" style="rounded=0;whiteSpace=wrap;html=1;" vertex="1" parent="1">
          <mxGeometry x="707.5" y="115" width="120" height="60" as="geometry" />
        </mxCell>
        <mxCell id="7RU0lWUtDbCaOoBTzE0H-86" style="edgeStyle=orthogonalEdgeStyle;rounded=0;orthogonalLoop=1;jettySize=auto;html=1;entryX=0;entryY=0.5;entryDx=0;entryDy=0;" edge="1" parent="1" source="7RU0lWUtDbCaOoBTzE0H-6" target="7RU0lWUtDbCaOoBTzE0H-73">
          <mxGeometry relative="1" as="geometry" />
        </mxCell>
        <mxCell id="7RU0lWUtDbCaOoBTzE0H-87" style="edgeStyle=orthogonalEdgeStyle;rounded=0;orthogonalLoop=1;jettySize=auto;html=1;entryX=0;entryY=0.5;entryDx=0;entryDy=0;" edge="1" parent="1" source="7RU0lWUtDbCaOoBTzE0H-6" target="7RU0lWUtDbCaOoBTzE0H-75">
          <mxGeometry relative="1" as="geometry" />
        </mxCell>
        <mxCell id="7RU0lWUtDbCaOoBTzE0H-88" style="edgeStyle=orthogonalEdgeStyle;rounded=0;orthogonalLoop=1;jettySize=auto;html=1;entryX=0;entryY=0.5;entryDx=0;entryDy=0;" edge="1" parent="1" source="7RU0lWUtDbCaOoBTzE0H-6" target="7RU0lWUtDbCaOoBTzE0H-77">
          <mxGeometry relative="1" as="geometry" />
        </mxCell>
        <mxCell id="7RU0lWUtDbCaOoBTzE0H-97" style="edgeStyle=orthogonalEdgeStyle;rounded=0;orthogonalLoop=1;jettySize=auto;html=1;entryX=0;entryY=0.5;entryDx=0;entryDy=0;" edge="1" parent="1" source="7RU0lWUtDbCaOoBTzE0H-6" target="7RU0lWUtDbCaOoBTzE0H-94">
          <mxGeometry relative="1" as="geometry" />
        </mxCell>
        <mxCell id="7RU0lWUtDbCaOoBTzE0H-141" style="edgeStyle=orthogonalEdgeStyle;rounded=0;orthogonalLoop=1;jettySize=auto;html=1;entryX=1;entryY=0.5;entryDx=0;entryDy=0;endArrow=doubleBlock;endFill=1;" edge="1" parent="1" source="7RU0lWUtDbCaOoBTzE0H-6" target="7RU0lWUtDbCaOoBTzE0H-139">
          <mxGeometry relative="1" as="geometry">
            <Array as="points">
              <mxPoint x="804" y="401" />
            </Array>
          </mxGeometry>
        </mxCell>
        <mxCell id="7RU0lWUtDbCaOoBTzE0H-150" style="edgeStyle=orthogonalEdgeStyle;rounded=0;orthogonalLoop=1;jettySize=auto;html=1;entryX=0;entryY=0.5;entryDx=0;entryDy=0;endArrow=doubleBlock;endFill=1;" edge="1" parent="1" source="7RU0lWUtDbCaOoBTzE0H-6" target="7RU0lWUtDbCaOoBTzE0H-145">
          <mxGeometry relative="1" as="geometry" />
        </mxCell>
        <mxCell id="7RU0lWUtDbCaOoBTzE0H-6" value="Customer" style="rounded=0;whiteSpace=wrap;html=1;" vertex="1" parent="1">
          <mxGeometry x="744.25" y="477" width="120" height="60" as="geometry" />
        </mxCell>
        <mxCell id="7RU0lWUtDbCaOoBTzE0H-118" style="edgeStyle=orthogonalEdgeStyle;rounded=0;orthogonalLoop=1;jettySize=auto;html=1;entryX=0;entryY=0.5;entryDx=0;entryDy=0;" edge="1" parent="1" source="7RU0lWUtDbCaOoBTzE0H-8" target="7RU0lWUtDbCaOoBTzE0H-110">
          <mxGeometry relative="1" as="geometry" />
        </mxCell>
        <mxCell id="7RU0lWUtDbCaOoBTzE0H-119" style="edgeStyle=orthogonalEdgeStyle;rounded=0;orthogonalLoop=1;jettySize=auto;html=1;entryX=0;entryY=0.5;entryDx=0;entryDy=0;" edge="1" parent="1" source="7RU0lWUtDbCaOoBTzE0H-8" target="7RU0lWUtDbCaOoBTzE0H-112">
          <mxGeometry relative="1" as="geometry" />
        </mxCell>
        <mxCell id="7RU0lWUtDbCaOoBTzE0H-121" style="edgeStyle=orthogonalEdgeStyle;rounded=0;orthogonalLoop=1;jettySize=auto;html=1;entryX=0;entryY=0.5;entryDx=0;entryDy=0;" edge="1" parent="1" source="7RU0lWUtDbCaOoBTzE0H-8" target="7RU0lWUtDbCaOoBTzE0H-116">
          <mxGeometry relative="1" as="geometry" />
        </mxCell>
        <mxCell id="7RU0lWUtDbCaOoBTzE0H-133" style="edgeStyle=orthogonalEdgeStyle;rounded=0;orthogonalLoop=1;jettySize=auto;html=1;entryX=0;entryY=0.5;entryDx=0;entryDy=0;" edge="1" parent="1" source="7RU0lWUtDbCaOoBTzE0H-8" target="7RU0lWUtDbCaOoBTzE0H-132">
          <mxGeometry relative="1" as="geometry" />
        </mxCell>
        <mxCell id="7RU0lWUtDbCaOoBTzE0H-8" value="Employee" style="rounded=0;whiteSpace=wrap;html=1;" vertex="1" parent="1">
          <mxGeometry x="-251" y="115" width="120" height="60" as="geometry" />
        </mxCell>
        <mxCell id="7RU0lWUtDbCaOoBTzE0H-9" value="" style="ellipse;whiteSpace=wrap;html=1;aspect=fixed;" vertex="1" parent="1">
          <mxGeometry x="130" y="185" width="30" height="30" as="geometry" />
        </mxCell>
        <mxCell id="7RU0lWUtDbCaOoBTzE0H-12" value="Name" style="text;html=1;align=center;verticalAlign=middle;resizable=0;points=[];autosize=1;strokeColor=none;fillColor=none;" vertex="1" parent="1">
          <mxGeometry x="150" y="183" width="60" height="30" as="geometry" />
        </mxCell>
        <mxCell id="7RU0lWUtDbCaOoBTzE0H-13" value="" style="ellipse;whiteSpace=wrap;html=1;aspect=fixed;" vertex="1" parent="1">
          <mxGeometry x="130" y="217" width="30" height="30" as="geometry" />
        </mxCell>
        <mxCell id="7RU0lWUtDbCaOoBTzE0H-14" value="Address" style="text;html=1;align=center;verticalAlign=middle;resizable=0;points=[];autosize=1;strokeColor=none;fillColor=none;" vertex="1" parent="1">
          <mxGeometry x="150" y="215" width="70" height="30" as="geometry" />
        </mxCell>
        <mxCell id="7RU0lWUtDbCaOoBTzE0H-15" value="" style="ellipse;whiteSpace=wrap;html=1;aspect=fixed;" vertex="1" parent="1">
          <mxGeometry x="130" y="249" width="30" height="30" as="geometry" />
        </mxCell>
        <mxCell id="7RU0lWUtDbCaOoBTzE0H-16" value="Phone" style="text;html=1;align=center;verticalAlign=middle;resizable=0;points=[];autosize=1;strokeColor=none;fillColor=none;" vertex="1" parent="1">
          <mxGeometry x="150" y="247" width="60" height="30" as="geometry" />
        </mxCell>
        <mxCell id="7RU0lWUtDbCaOoBTzE0H-18" style="edgeStyle=orthogonalEdgeStyle;rounded=0;orthogonalLoop=1;jettySize=auto;html=1;entryX=0.015;entryY=0.593;entryDx=0;entryDy=0;entryPerimeter=0;" edge="1" parent="1" source="7RU0lWUtDbCaOoBTzE0H-1" target="7RU0lWUtDbCaOoBTzE0H-13">
          <mxGeometry relative="1" as="geometry" />
        </mxCell>
        <mxCell id="7RU0lWUtDbCaOoBTzE0H-20" value="" style="endArrow=none;html=1;rounded=0;" edge="1" parent="1">
          <mxGeometry width="50" height="50" relative="1" as="geometry">
            <mxPoint x="110" y="279" as="sourcePoint" />
            <mxPoint x="110" y="249" as="targetPoint" />
          </mxGeometry>
        </mxCell>
        <mxCell id="7RU0lWUtDbCaOoBTzE0H-21" value="" style="ellipse;whiteSpace=wrap;html=1;aspect=fixed;" vertex="1" parent="1">
          <mxGeometry x="452.5" y="184" width="30" height="30" as="geometry" />
        </mxCell>
        <mxCell id="7RU0lWUtDbCaOoBTzE0H-22" value="Name" style="text;html=1;align=center;verticalAlign=middle;resizable=0;points=[];autosize=1;strokeColor=none;fillColor=none;" vertex="1" parent="1">
          <mxGeometry x="472.5" y="182" width="60" height="30" as="geometry" />
        </mxCell>
        <mxCell id="7RU0lWUtDbCaOoBTzE0H-23" value="" style="ellipse;whiteSpace=wrap;html=1;aspect=fixed;" vertex="1" parent="1">
          <mxGeometry x="452.5" y="216" width="30" height="30" as="geometry" />
        </mxCell>
        <mxCell id="7RU0lWUtDbCaOoBTzE0H-24" value="Capacity" style="text;html=1;align=center;verticalAlign=middle;resizable=0;points=[];autosize=1;strokeColor=none;fillColor=none;" vertex="1" parent="1">
          <mxGeometry x="472.5" y="214" width="70" height="30" as="geometry" />
        </mxCell>
        <mxCell id="7RU0lWUtDbCaOoBTzE0H-28" value="" style="ellipse;whiteSpace=wrap;html=1;aspect=fixed;" vertex="1" parent="1">
          <mxGeometry x="452.5" y="250" width="30" height="30" as="geometry" />
        </mxCell>
        <mxCell id="7RU0lWUtDbCaOoBTzE0H-29" value="ScreenType" style="text;html=1;align=center;verticalAlign=middle;resizable=0;points=[];autosize=1;strokeColor=none;fillColor=none;" vertex="1" parent="1">
          <mxGeometry x="472.5" y="248" width="90" height="30" as="geometry" />
        </mxCell>
        <mxCell id="7RU0lWUtDbCaOoBTzE0H-30" style="edgeStyle=orthogonalEdgeStyle;rounded=0;orthogonalLoop=1;jettySize=auto;html=1;entryX=0.033;entryY=0.371;entryDx=0;entryDy=0;entryPerimeter=0;" edge="1" parent="1" source="7RU0lWUtDbCaOoBTzE0H-3" target="7RU0lWUtDbCaOoBTzE0H-23">
          <mxGeometry relative="1" as="geometry" />
        </mxCell>
        <mxCell id="7RU0lWUtDbCaOoBTzE0H-33" value="" style="ellipse;whiteSpace=wrap;html=1;aspect=fixed;" vertex="1" parent="1">
          <mxGeometry x="797.5" y="185" width="30" height="30" as="geometry" />
        </mxCell>
        <mxCell id="7RU0lWUtDbCaOoBTzE0H-34" value="Titolo" style="text;html=1;align=center;verticalAlign=middle;resizable=0;points=[];autosize=1;strokeColor=none;fillColor=none;" vertex="1" parent="1">
          <mxGeometry x="822.5" y="183" width="50" height="30" as="geometry" />
        </mxCell>
        <mxCell id="7RU0lWUtDbCaOoBTzE0H-35" value="" style="ellipse;whiteSpace=wrap;html=1;aspect=fixed;" vertex="1" parent="1">
          <mxGeometry x="797.5" y="217" width="30" height="30" as="geometry" />
        </mxCell>
        <mxCell id="7RU0lWUtDbCaOoBTzE0H-36" value="Director" style="text;html=1;align=center;verticalAlign=middle;resizable=0;points=[];autosize=1;strokeColor=none;fillColor=none;" vertex="1" parent="1">
          <mxGeometry x="817.5" y="215" width="70" height="30" as="geometry" />
        </mxCell>
        <mxCell id="7RU0lWUtDbCaOoBTzE0H-37" value="" style="ellipse;whiteSpace=wrap;html=1;aspect=fixed;" vertex="1" parent="1">
          <mxGeometry x="797.5" y="251" width="30" height="30" as="geometry" />
        </mxCell>
        <mxCell id="7RU0lWUtDbCaOoBTzE0H-38" value="ReleaseDate" style="text;html=1;align=center;verticalAlign=middle;resizable=0;points=[];autosize=1;strokeColor=none;fillColor=none;" vertex="1" parent="1">
          <mxGeometry x="817.5" y="249" width="90" height="30" as="geometry" />
        </mxCell>
        <mxCell id="7RU0lWUtDbCaOoBTzE0H-44" value="" style="ellipse;whiteSpace=wrap;html=1;aspect=fixed;" vertex="1" parent="1">
          <mxGeometry x="797.5" y="286" width="30" height="30" as="geometry" />
        </mxCell>
        <mxCell id="7RU0lWUtDbCaOoBTzE0H-45" value="DurationMin" style="text;html=1;align=center;verticalAlign=middle;resizable=0;points=[];autosize=1;strokeColor=none;fillColor=none;" vertex="1" parent="1">
          <mxGeometry x="817.5" y="284" width="90" height="30" as="geometry" />
        </mxCell>
        <mxCell id="7RU0lWUtDbCaOoBTzE0H-46" value="" style="ellipse;whiteSpace=wrap;html=1;aspect=fixed;" vertex="1" parent="1">
          <mxGeometry x="797.5" y="318" width="30" height="30" as="geometry" />
        </mxCell>
        <mxCell id="7RU0lWUtDbCaOoBTzE0H-47" value="Rating" style="text;html=1;align=center;verticalAlign=middle;resizable=0;points=[];autosize=1;strokeColor=none;fillColor=none;" vertex="1" parent="1">
          <mxGeometry x="832.5" y="316" width="60" height="30" as="geometry" />
        </mxCell>
        <mxCell id="7RU0lWUtDbCaOoBTzE0H-48" value="" style="endArrow=none;html=1;rounded=0;" edge="1" parent="1">
          <mxGeometry width="50" height="50" relative="1" as="geometry">
            <mxPoint x="437.5" y="278" as="sourcePoint" />
            <mxPoint x="437.5" y="248" as="targetPoint" />
          </mxGeometry>
        </mxCell>
        <mxCell id="7RU0lWUtDbCaOoBTzE0H-55" value="" style="endArrow=none;html=1;rounded=0;" edge="1" parent="1">
          <mxGeometry width="50" height="50" relative="1" as="geometry">
            <mxPoint x="777.5" y="281" as="sourcePoint" />
            <mxPoint x="777.5" y="251" as="targetPoint" />
          </mxGeometry>
        </mxCell>
        <mxCell id="7RU0lWUtDbCaOoBTzE0H-56" value="" style="endArrow=none;html=1;rounded=0;" edge="1" parent="1">
          <mxGeometry width="50" height="50" relative="1" as="geometry">
            <mxPoint x="777.5" y="316" as="sourcePoint" />
            <mxPoint x="777.5" y="286" as="targetPoint" />
          </mxGeometry>
        </mxCell>
        <mxCell id="7RU0lWUtDbCaOoBTzE0H-57" value="" style="endArrow=none;html=1;rounded=0;" edge="1" parent="1">
          <mxGeometry width="50" height="50" relative="1" as="geometry">
            <mxPoint x="777.5" y="351" as="sourcePoint" />
            <mxPoint x="777.5" y="321" as="targetPoint" />
          </mxGeometry>
        </mxCell>
        <mxCell id="7RU0lWUtDbCaOoBTzE0H-58" value="" style="ellipse;whiteSpace=wrap;html=1;aspect=fixed;" vertex="1" parent="1">
          <mxGeometry x="640.5" y="198" width="30" height="30" as="geometry" />
        </mxCell>
        <mxCell id="7RU0lWUtDbCaOoBTzE0H-59" value="Datetime" style="text;html=1;align=center;verticalAlign=middle;resizable=0;points=[];autosize=1;strokeColor=none;fillColor=none;" vertex="1" parent="1">
          <mxGeometry x="662.5" y="196" width="70" height="30" as="geometry" />
        </mxCell>
        <mxCell id="7RU0lWUtDbCaOoBTzE0H-60" value="" style="ellipse;whiteSpace=wrap;html=1;aspect=fixed;" vertex="1" parent="1">
          <mxGeometry x="640.5" y="230" width="30" height="30" as="geometry" />
        </mxCell>
        <mxCell id="7RU0lWUtDbCaOoBTzE0H-61" value="Price" style="text;html=1;align=center;verticalAlign=middle;resizable=0;points=[];autosize=1;strokeColor=none;fillColor=none;" vertex="1" parent="1">
          <mxGeometry x="670.5" y="228" width="50" height="30" as="geometry" />
        </mxCell>
        <mxCell id="7RU0lWUtDbCaOoBTzE0H-65" value="" style="ellipse;whiteSpace=wrap;html=1;aspect=fixed;" vertex="1" parent="1">
          <mxGeometry x="622.5" y="455" width="30" height="30" as="geometry" />
        </mxCell>
        <mxCell id="7RU0lWUtDbCaOoBTzE0H-66" value="Seatnumber" style="text;html=1;align=center;verticalAlign=middle;resizable=0;points=[];autosize=1;strokeColor=none;fillColor=none;" vertex="1" parent="1">
          <mxGeometry x="642.5" y="453" width="90" height="30" as="geometry" />
        </mxCell>
        <mxCell id="7RU0lWUtDbCaOoBTzE0H-67" value="" style="ellipse;whiteSpace=wrap;html=1;aspect=fixed;" vertex="1" parent="1">
          <mxGeometry x="622.5" y="487" width="30" height="30" as="geometry" />
        </mxCell>
        <mxCell id="7RU0lWUtDbCaOoBTzE0H-68" value="P.DateTIme" style="text;html=1;align=center;verticalAlign=middle;resizable=0;points=[];autosize=1;strokeColor=none;fillColor=none;" vertex="1" parent="1">
          <mxGeometry x="641.5" y="485" width="90" height="30" as="geometry" />
        </mxCell>
        <mxCell id="7RU0lWUtDbCaOoBTzE0H-73" value="" style="ellipse;whiteSpace=wrap;html=1;aspect=fixed;" vertex="1" parent="1">
          <mxGeometry x="834.75" y="552" width="30" height="30" as="geometry" />
        </mxCell>
        <mxCell id="7RU0lWUtDbCaOoBTzE0H-74" value="Frist Name" style="text;html=1;align=center;verticalAlign=middle;resizable=0;points=[];autosize=1;strokeColor=none;fillColor=none;" vertex="1" parent="1">
          <mxGeometry x="858.75" y="550" width="80" height="30" as="geometry" />
        </mxCell>
        <mxCell id="7RU0lWUtDbCaOoBTzE0H-75" value="" style="ellipse;whiteSpace=wrap;html=1;aspect=fixed;" vertex="1" parent="1">
          <mxGeometry x="834.75" y="584" width="30" height="30" as="geometry" />
        </mxCell>
        <mxCell id="7RU0lWUtDbCaOoBTzE0H-76" value="Last Name" style="text;html=1;align=center;verticalAlign=middle;resizable=0;points=[];autosize=1;strokeColor=none;fillColor=none;" vertex="1" parent="1">
          <mxGeometry x="858.75" y="582" width="80" height="30" as="geometry" />
        </mxCell>
        <mxCell id="7RU0lWUtDbCaOoBTzE0H-77" value="" style="ellipse;whiteSpace=wrap;html=1;aspect=fixed;" vertex="1" parent="1">
          <mxGeometry x="834.75" y="622" width="30" height="30" as="geometry" />
        </mxCell>
        <mxCell id="7RU0lWUtDbCaOoBTzE0H-78" value="Email" style="text;html=1;align=center;verticalAlign=middle;resizable=0;points=[];autosize=1;strokeColor=none;fillColor=none;" vertex="1" parent="1">
          <mxGeometry x="864.25" y="620" width="50" height="30" as="geometry" />
        </mxCell>
        <mxCell id="7RU0lWUtDbCaOoBTzE0H-89" value="" style="endArrow=none;html=1;rounded=0;" edge="1" parent="1">
          <mxGeometry width="50" height="50" relative="1" as="geometry">
            <mxPoint x="813.8299999999999" y="650" as="sourcePoint" />
            <mxPoint x="813.8299999999999" y="620" as="targetPoint" />
          </mxGeometry>
        </mxCell>
        <mxCell id="7RU0lWUtDbCaOoBTzE0H-94" value="" style="ellipse;whiteSpace=wrap;html=1;aspect=fixed;" vertex="1" parent="1">
          <mxGeometry x="834.75" y="662" width="30" height="30" as="geometry" />
        </mxCell>
        <mxCell id="7RU0lWUtDbCaOoBTzE0H-95" value="Phone" style="text;html=1;align=center;verticalAlign=middle;resizable=0;points=[];autosize=1;strokeColor=none;fillColor=none;" vertex="1" parent="1">
          <mxGeometry x="859.25" y="660" width="60" height="30" as="geometry" />
        </mxCell>
        <mxCell id="7RU0lWUtDbCaOoBTzE0H-96" value="" style="endArrow=none;html=1;rounded=0;" edge="1" parent="1">
          <mxGeometry width="50" height="50" relative="1" as="geometry">
            <mxPoint x="813.8299999999999" y="690" as="sourcePoint" />
            <mxPoint x="813.8299999999999" y="660" as="targetPoint" />
          </mxGeometry>
        </mxCell>
        <mxCell id="7RU0lWUtDbCaOoBTzE0H-98" value="" style="ellipse;whiteSpace=wrap;html=1;aspect=fixed;" vertex="1" parent="1">
          <mxGeometry x="1026.96" y="415" width="30" height="30" as="geometry" />
        </mxCell>
        <mxCell id="7RU0lWUtDbCaOoBTzE0H-99" value="R.Text" style="text;html=1;align=center;verticalAlign=middle;resizable=0;points=[];autosize=1;strokeColor=none;fillColor=none;" vertex="1" parent="1">
          <mxGeometry x="1051.46" y="413" width="60" height="30" as="geometry" />
        </mxCell>
        <mxCell id="7RU0lWUtDbCaOoBTzE0H-101" value="" style="ellipse;whiteSpace=wrap;html=1;aspect=fixed;" vertex="1" parent="1">
          <mxGeometry x="1026.96" y="455" width="30" height="30" as="geometry" />
        </mxCell>
        <mxCell id="7RU0lWUtDbCaOoBTzE0H-102" value="Rating" style="text;html=1;align=center;verticalAlign=middle;resizable=0;points=[];autosize=1;strokeColor=none;fillColor=none;" vertex="1" parent="1">
          <mxGeometry x="1051.46" y="453" width="60" height="30" as="geometry" />
        </mxCell>
        <mxCell id="7RU0lWUtDbCaOoBTzE0H-104" value="" style="endArrow=none;html=1;rounded=0;" edge="1" parent="1">
          <mxGeometry width="50" height="50" relative="1" as="geometry">
            <mxPoint x="1010" y="483" as="sourcePoint" />
            <mxPoint x="1010" y="453" as="targetPoint" />
          </mxGeometry>
        </mxCell>
        <mxCell id="7RU0lWUtDbCaOoBTzE0H-105" value="" style="ellipse;whiteSpace=wrap;html=1;aspect=fixed;" vertex="1" parent="1">
          <mxGeometry x="1026.96" y="496" width="30" height="30" as="geometry" />
        </mxCell>
        <mxCell id="7RU0lWUtDbCaOoBTzE0H-106" value="Review Date" style="text;html=1;align=center;verticalAlign=middle;resizable=0;points=[];autosize=1;strokeColor=none;fillColor=none;" vertex="1" parent="1">
          <mxGeometry x="1047.46" y="494" width="90" height="30" as="geometry" />
        </mxCell>
        <mxCell id="7RU0lWUtDbCaOoBTzE0H-110" value="" style="ellipse;whiteSpace=wrap;html=1;aspect=fixed;" vertex="1" parent="1">
          <mxGeometry x="-160" y="196" width="30" height="30" as="geometry" />
        </mxCell>
        <mxCell id="7RU0lWUtDbCaOoBTzE0H-111" value="FirstName" style="text;html=1;align=center;verticalAlign=middle;resizable=0;points=[];autosize=1;strokeColor=none;fillColor=none;" vertex="1" parent="1">
          <mxGeometry x="-135" y="194" width="80" height="30" as="geometry" />
        </mxCell>
        <mxCell id="7RU0lWUtDbCaOoBTzE0H-112" value="" style="ellipse;whiteSpace=wrap;html=1;aspect=fixed;" vertex="1" parent="1">
          <mxGeometry x="-160" y="228" width="30" height="30" as="geometry" />
        </mxCell>
        <mxCell id="7RU0lWUtDbCaOoBTzE0H-113" value="LastName" style="text;html=1;align=center;verticalAlign=middle;resizable=0;points=[];autosize=1;strokeColor=none;fillColor=none;" vertex="1" parent="1">
          <mxGeometry x="-136" y="226" width="80" height="30" as="geometry" />
        </mxCell>
        <mxCell id="7RU0lWUtDbCaOoBTzE0H-114" value="" style="ellipse;whiteSpace=wrap;html=1;aspect=fixed;" vertex="1" parent="1">
          <mxGeometry x="-160" y="263" width="30" height="30" as="geometry" />
        </mxCell>
        <mxCell id="7RU0lWUtDbCaOoBTzE0H-115" value="Position" style="text;html=1;align=center;verticalAlign=middle;resizable=0;points=[];autosize=1;strokeColor=none;fillColor=none;" vertex="1" parent="1">
          <mxGeometry x="-131" y="261" width="70" height="30" as="geometry" />
        </mxCell>
        <mxCell id="7RU0lWUtDbCaOoBTzE0H-116" value="" style="ellipse;whiteSpace=wrap;html=1;aspect=fixed;" vertex="1" parent="1">
          <mxGeometry x="-160" y="297" width="30" height="30" as="geometry" />
        </mxCell>
        <mxCell id="7RU0lWUtDbCaOoBTzE0H-117" value="HireDate" style="text;html=1;align=center;verticalAlign=middle;resizable=0;points=[];autosize=1;strokeColor=none;fillColor=none;" vertex="1" parent="1">
          <mxGeometry x="-131" y="295" width="70" height="30" as="geometry" />
        </mxCell>
        <mxCell id="7RU0lWUtDbCaOoBTzE0H-120" style="edgeStyle=orthogonalEdgeStyle;rounded=0;orthogonalLoop=1;jettySize=auto;html=1;entryX=-0.017;entryY=0.333;entryDx=0;entryDy=0;entryPerimeter=0;" edge="1" parent="1" source="7RU0lWUtDbCaOoBTzE0H-8" target="7RU0lWUtDbCaOoBTzE0H-114">
          <mxGeometry relative="1" as="geometry" />
        </mxCell>
        <mxCell id="7RU0lWUtDbCaOoBTzE0H-122" value="" style="endArrow=none;html=1;rounded=0;" edge="1" parent="1">
          <mxGeometry width="50" height="50" relative="1" as="geometry">
            <mxPoint x="-180" y="288" as="sourcePoint" />
            <mxPoint x="-180" y="258" as="targetPoint" />
          </mxGeometry>
        </mxCell>
        <mxCell id="7RU0lWUtDbCaOoBTzE0H-123" value="" style="endArrow=none;html=1;rounded=0;" edge="1" parent="1">
          <mxGeometry width="50" height="50" relative="1" as="geometry">
            <mxPoint x="-180" y="325" as="sourcePoint" />
            <mxPoint x="-180" y="295" as="targetPoint" />
          </mxGeometry>
        </mxCell>
        <mxCell id="7RU0lWUtDbCaOoBTzE0H-124" value="Contiene" style="rhombus;whiteSpace=wrap;html=1;" vertex="1" parent="1">
          <mxGeometry x="212.71" y="105" width="80" height="80" as="geometry" />
        </mxCell>
        <mxCell id="7RU0lWUtDbCaOoBTzE0H-132" value="&lt;font style=&quot;font-size: 10px;&quot;&gt;SOTTOPAGA&lt;/font&gt;" style="rhombus;whiteSpace=wrap;html=1;" vertex="1" parent="1">
          <mxGeometry x="-89.99999999999997" y="105" width="80" height="80" as="geometry" />
        </mxCell>
        <mxCell id="7RU0lWUtDbCaOoBTzE0H-142" style="edgeStyle=orthogonalEdgeStyle;rounded=0;orthogonalLoop=1;jettySize=auto;html=1;entryX=0;entryY=0.5;entryDx=0;entryDy=0;" edge="1" parent="1" source="7RU0lWUtDbCaOoBTzE0H-139" target="7RU0lWUtDbCaOoBTzE0H-65">
          <mxGeometry relative="1" as="geometry" />
        </mxCell>
        <mxCell id="7RU0lWUtDbCaOoBTzE0H-143" style="edgeStyle=orthogonalEdgeStyle;rounded=0;orthogonalLoop=1;jettySize=auto;html=1;entryX=0;entryY=0.5;entryDx=0;entryDy=0;" edge="1" parent="1" source="7RU0lWUtDbCaOoBTzE0H-139" target="7RU0lWUtDbCaOoBTzE0H-67">
          <mxGeometry relative="1" as="geometry" />
        </mxCell>
        <mxCell id="7RU0lWUtDbCaOoBTzE0H-139" value="Ticket" style="rhombus;whiteSpace=wrap;html=1;" vertex="1" parent="1">
          <mxGeometry x="552" y="361" width="80" height="80" as="geometry" />
        </mxCell>
        <mxCell id="7RU0lWUtDbCaOoBTzE0H-146" style="edgeStyle=orthogonalEdgeStyle;rounded=0;orthogonalLoop=1;jettySize=auto;html=1;entryX=0;entryY=0.5;entryDx=0;entryDy=0;" edge="1" parent="1" source="7RU0lWUtDbCaOoBTzE0H-145" target="7RU0lWUtDbCaOoBTzE0H-98">
          <mxGeometry relative="1" as="geometry" />
        </mxCell>
        <mxCell id="7RU0lWUtDbCaOoBTzE0H-147" style="edgeStyle=orthogonalEdgeStyle;rounded=0;orthogonalLoop=1;jettySize=auto;html=1;entryX=0;entryY=0.5;entryDx=0;entryDy=0;" edge="1" parent="1" source="7RU0lWUtDbCaOoBTzE0H-145" target="7RU0lWUtDbCaOoBTzE0H-101">
          <mxGeometry relative="1" as="geometry" />
        </mxCell>
        <mxCell id="7RU0lWUtDbCaOoBTzE0H-148" style="edgeStyle=orthogonalEdgeStyle;rounded=0;orthogonalLoop=1;jettySize=auto;html=1;entryX=0;entryY=0.5;entryDx=0;entryDy=0;" edge="1" parent="1" source="7RU0lWUtDbCaOoBTzE0H-145" target="7RU0lWUtDbCaOoBTzE0H-105">
          <mxGeometry relative="1" as="geometry" />
        </mxCell>
        <mxCell id="7RU0lWUtDbCaOoBTzE0H-145" value="REVIEW" style="rhombus;whiteSpace=wrap;html=1;" vertex="1" parent="1">
          <mxGeometry x="960" y="318" width="80" height="80" as="geometry" />
        </mxCell>
        <mxCell id="7RU0lWUtDbCaOoBTzE0H-149" value="" style="endArrow=none;html=1;rounded=0;" edge="1" parent="1">
          <mxGeometry width="50" height="50" relative="1" as="geometry">
            <mxPoint x="1010" y="445" as="sourcePoint" />
            <mxPoint x="1010" y="415" as="targetPoint" />
          </mxGeometry>
        </mxCell>
        <mxCell id="7RU0lWUtDbCaOoBTzE0H-152" value="" style="endArrow=none;html=1;rounded=0;" edge="1" parent="1">
          <mxGeometry width="50" height="50" relative="1" as="geometry">
            <mxPoint x="777" y="248" as="sourcePoint" />
            <mxPoint x="777" y="218" as="targetPoint" />
          </mxGeometry>
        </mxCell>
      </root>
    </mxGraphModel>
  </diagram>
</mxfile>
